<?xml version="1.0" encoding="UTF-8"?>
<svg id="Layer_1" xmlns="http://www.w3.org/2000/svg" version="1.1" viewBox="0 0 1080 1007.2">
  <!-- Generator: Adobe Illustrator 30.2.1, SVG Export Plug-In . SVG Version: 2.1.1 Build 1)  -->
  <g>
    <path d="M1078.4,503.6c-10.8,0-23.4.4-37.9,1.2-14.5.8-29.3,1.2-44.3,1.2s-29.7-.4-43.9-1.2c-14.2-.8-26.5-1.2-36.7-1.2s-2.4,1.6-2.4,4.8.8,4.8,2.4,4.8c25.2,0,40.6,3.8,45.9,11.3,5.4,7.5,5.9,22.8,1.6,45.9l-29.2,166h-259l29.5-166c1.9-9.4,4-17.4,6.3-24.1-7-1.6-14.1-3.9-21.4-6.9-6.6,38.6-17.6,72.5-32.8,100.8-4.7,8.7-9.8,16.9-15.1,24.8l-49,276.9c-2.7,15.6-6.2,27.4-10.5,35.5-4.3,8.1-11,13.4-20.1,16.1-9.1,2.7-22,4-38.7,4s-2.4,1.6-2.4,4.8.8,4.8,2.4,4.8c10.7,0,23-.3,36.7-.8,13.7-.5,28.3-.8,43.9-.8s31.3.3,45.5.8c14.2.5,26.7.8,37.5.8s2.4-1.6,2.4-4.8-.8-4.8-2.4-4.8c-25.3,0-40.6-3.5-45.9-10.5-5.4-7-6.2-22-2.4-45.1l33.5-188.5h259l-33.1,188.5c-2.7,15.6-6.2,27.4-10.5,35.5-4.3,8.1-10.8,13.4-19.3,16.1-8.6,2.7-21.5,4-38.7,4s-1.6,1.6-1.6,4.8.5,4.8,1.6,4.8c10.7,0,23.4-.3,37.9-.8,14.5-.5,29.5-.8,45.1-.8s30.3.3,44.3.8c14,.5,26.1.8,36.3.8s2.4-1.6,2.4-4.8-.8-4.8-2.4-4.8c-24.2,0-39.4-3.5-45.5-10.5-6.2-7-7.4-22-3.6-45.1l66.1-373.1c2.7-15.6,6.2-27.3,10.5-35,4.3-7.8,11-13.2,20.1-16.1,9.1-2.9,21.8-4.4,37.9-4.4s1.6-1.6,1.6-4.8-.5-4.8-1.6-4.8Z"/>
    <path d="M488.7,54.5l-43.6,290.6c.8,0,1.6,0,2.4,0,14.8,0,29,2.4,42.3,7.1l42.8-288.4c3.2-22.6,10.7-37.2,22.6-43.9,11.8-6.7,28.2-10.1,49.2-10.1s1.6-1.6,1.6-4.8-.5-4.8-1.6-4.8c-8.1,0-16,.3-23.8.8-7.8.5-17.6.8-29.4.8s-12.4-.3-19.3-.8c-7-.5-11.8-.8-14.5-.8-9.7,0-18.5,6.7-26.6,20.1l-214.5,405.9L193.4,41.9c-3.8-17.2-7.2-28.5-10.5-33.8-3.2-5.4-7.8-8.1-13.7-8.1s-7.9.3-14.1.8c-6.2.5-13.3.8-21.4.8s-13.7-.3-21.8-.8c-8.1-.5-15.6-.8-22.6-.8s-1.6,1.6-1.6,4.8.5,4.8,1.6,4.8c7,0,14.6,1.2,23,3.6,8.3,2.4,16.1,7.7,23.4,15.7,1.9,2.1,3.6,4.5,5.2,7.2l-70.1,379.6c-5.4,27.9-13.4,47.9-24.2,60-10.7,12.1-25.5,18.1-44.3,18.1s-2.4,1.6-2.4,4.8.8,4.8,2.4,4.8c9.1,0,18.9-.3,29.4-.8,10.5-.5,21.4-.8,32.6-.8s24.2.3,33.8.8c9.7.5,18.8.8,27.4.8s2.4-1.6,2.4-4.8-.8-4.8-2.4-4.8c-18.8,0-31-6-36.7-18.1-5.6-12.1-6.3-32.1-2-60L150.8,63.8c.2,1,.5,2,.7,3.1l91.1,430.3c.5,2.2,2.3,3.4,5.2,3.6,2.9.3,5-.7,6-2.8L488.7,54.5Z"/>
  </g>
  <path d="M455.6,744.9c-31.7,0-60-6.4-85-19.3-25-12.9-45.8-30.5-62.4-52.8-16.7-22.3-28.1-47.4-34.2-75.3-6.2-27.9-6.3-56.7-.4-86.2,6.4-29.5,18.9-55.6,37.5-78.2,18.5-22.6,40-40.3,64.5-53.2,24.4-12.9,48.5-19.3,72.1-19.3s26.1,2.2,37.9,6.4c11.8,4.3,22.3,11.8,31.4,22.6l-37.9,34.6c-9.1-17.2-20.5-28.6-34.2-34.2-13.7-5.6-26.2-8.5-37.5-8.5s-28.3,4.7-41.5,14.1c-13.2,9.4-24.5,21.9-33.8,37.5-9.4,15.6-16.5,33-21.4,52.4-6.4,33.3-5.9,64.1,1.6,92.3,7.5,28.2,19.7,52.8,36.7,73.7,16.9,21,36.9,37.2,60,48.7,23.1,11.6,47.3,17.3,72.5,17.3s65.8-8.6,92.7-25.8c26.9-17.2,48.5-42.8,64.9-76.9,16.4-34.1,25.6-76.9,27.8-128.5l12.9,4.8c-4.3,56.9-16.5,104.2-36.7,141.8-20.1,37.6-46.3,65.7-78.6,84.2-32.2,18.5-68.5,27.8-108.8,27.8ZM301.6,577.3l-7.3-7.2c19.3-16.1,40.8-33.3,64.5-51.6,23.6-18.3,47.5-37.1,71.7-56.4,24.2-19.3,46.3-38.9,66.5-58.8,20.1-19.9,36.4-39.6,48.7-59.2,12.4-19.6,18.5-38.8,18.5-57.6s-1.3-18.1-4-23.8c-2.7-5.6-5.9-10.2-9.7-13.7-3.8-3.5-7-6.8-9.7-10.1-2.7-3.2-4-7.8-4-13.7s2-12.5,6-16.5c4-4,9.3-6,15.7-6,10.7,0,19.9,5,27.4,14.9,7.5,9.9,11.3,23.8,11.3,41.5s-6.9,45.4-20.5,68.5c-13.7,23.1-31.7,45.9-54,68.5-22.3,22.6-46.6,44.6-72.9,66.1-26.3,21.5-52.5,41.9-78.6,61.2-26.1,19.3-49.3,37.3-69.7,54ZM526.5,546.7c-5.4,0-9.9-1.7-13.7-5.2-3.8-3.5-5.6-9.8-5.6-18.9,0-14,4.2-26.9,12.5-38.7,8.3-11.8,19.2-21.4,32.6-28.6,13.4-7.2,27.4-10.9,41.9-10.9s28.5,3.1,43.5,9.3c15,6.2,30.1,13.3,45.1,21.4,15,8.1,29.7,15.2,43.9,21.4,14.2,6.2,27.3,9.3,39.1,9.3s13.3-1.5,17.3-4.4c4-2.9,6-6.3,6-10.1,0-5.4-1.2-10.1-3.6-14.1-2.4-4-5-8.2-7.7-12.5-2.7-4.3-4-9.1-4-14.5s1.6-10.2,4.8-12.9c3.2-2.7,7.8-4,13.7-4s9.8,1.5,13.3,4.4c3.5,3,5.2,9.3,5.2,18.9s-3.4,25.3-10.1,37.1c-6.7,11.8-15.7,21.5-27,29-11.3,7.5-23.9,11.3-37.9,11.3s-27.7-3.2-42.7-9.7c-15-6.4-30.5-14-46.3-22.6-15.9-8.6-31.3-16.1-46.3-22.6-15-6.4-29.3-9.7-42.7-9.7s-14.2,1.8-18.5,5.2c-4.3,3.5-6.4,7.4-6.4,11.7s.9,10.3,2.8,14.9c1.9,4.6,3.7,9.1,5.6,13.7,1.9,4.6,2.8,9.3,2.8,14.1s-1.2,7.7-3.6,11.7-7.1,6-14.1,6Z"/>
</svg>