<?xml version="1.0" encoding="UTF-8"?>
<svg id="Layer_1" xmlns="http://www.w3.org/2000/svg" version="1.1" viewBox="0 0 1455 1642.6">
  <!-- Generator: Adobe Illustrator 30.2.1, SVG Export Plug-In . SVG Version: 2.1.1 Build 1)  -->
  <defs>
    <style>
      .st0 {
        fill: #fff;
      }

      .st1 {
        fill: #d4af37;
      }
    </style>
  </defs>
  <path class="st0" d="M1405.6,28.9c-6.4-6.4-15.8-9.6-28.1-9.6s-21,3.2-27.7,9.6c-6.7,6.4-10.1,15.3-10.1,26.5s3.4,21.7,10.1,28.1c6.7,6.4,15.9,9.6,27.7,9.6,25.2,0,37.8-12.6,37.8-37.8s-3.2-20.1-9.6-26.5ZM1417.7,441.5c-2.1-2.4-4.3-2.5-6.4-.4-10.2,10.2-19.7,18.4-28.5,24.5-8.8,6.2-16.2,9.2-22.1,9.2s-10.2-3.3-12.9-10.1c-2.7-6.7-2.4-18.1.8-34.1l32.9-171.1c5.3-26.2,5.9-45.2,1.6-57-4.3-11.8-13.9-17.7-28.9-17.7s-28.4,5.1-43.4,15.3c-15,10.2-31.9,26-50.6,47.4-2.1,1.6-2,3.6.4,6,2.4,2.4,4.4,2.5,6,.4,10.7-11.2,20.6-20,29.7-26.1,9.1-6.2,16.6-9.2,22.5-9.2,15,0,19.5,15,13.6,45l-32.9,167.1c-5.9,28.4-6.6,48.6-2,60.7,4.5,12,14.1,18.1,28.5,18.1s29.1-5.2,43.8-15.7c14.7-10.4,30.7-25.8,47.8-46.2,2.1-1.6,2.1-3.6,0-6ZM1265,440.3c-2.2-2.1-4.3-2.1-6.4,0-10.7,10.2-20.2,18.5-28.5,24.9-8.3,6.4-15.4,9.6-21.3,9.6s-10-3.3-12.4-10.1c-2.4-6.7-2.3-18.1.4-34.1l25.7-143c6.9-37.5,6.6-64.5-1.2-81.1-7.8-16.6-22.4-24.9-43.8-24.9s-50.3,12.7-73.9,38.2c-23.6,25.5-44.6,61.7-63.1,108.9-1.5,3.9-3,7.9-4.5,11.9-16.4,44.5-29.5,95.7-39.3,153.7l11.2.8c.4-2.3.8-4.7,1.3-7,10.5-57,23.3-105.4,38.5-145.3,15.8-41.5,32.4-72.8,49.8-94,17.4-21.2,33.9-31.7,49.4-31.7s22,7.1,25.7,21.3c3.7,14.2,3.2,35.8-1.6,64.7l-23.3,127.8c-4.8,27.8-5.4,47.9-1.6,60.3,3.7,12.3,13.1,18.5,28.1,18.5s28.9-5.5,43.4-16.5c14.5-11,30.2-26.4,47.4-46.2,2.1-2.1,2.1-4.3,0-6.4ZM1043.7,206.1c-8.3-16.3-22.6-24.5-43-24.5s-51.1,13-74.7,39c-23.6,26-44.6,62.4-63.1,109.3-1.6,3.9-3.1,7.9-4.6,11.9-7.8,21.1-14.9,43.8-21.2,67.9-.8,20.1-6.1,43.3-14.6,65.3-1.2,6.3-2.3,12.7-3.4,19.2l12,.8c.6-3.7,1.3-7.3,1.9-10.9,0,0,0-.2,0-.3,9.8-54.1,22-100.4,36.6-139,15.5-41.2,32.1-72.8,49.8-94.8,17.7-22,34.3-32.9,49.8-32.9s21.3,7,25.3,20.9c4,13.9,3.9,35.3-.4,64.3l-26.5,140.6c-2.1,12.8-4.7,25.7-7.6,38.6-3,12.9-4.4,20.1-4.4,21.7s1.3,2.9,4,4c2.7,1.1,8.3,1.6,16.9,1.6,19.8,0,30.3-4.6,31.3-13.7l1.3-7,26.8-147.5,9.7-53.6c7-37.5,6.3-64.4-2-80.8ZM874.1,202.5c-4-11.8-13.2-17.7-27.7-17.7s-29.3,5.1-44.6,15.3c-15.3,10.2-32.3,26-51,47.4-1.6,1.6-1.3,3.6.8,6,2.1,2.4,4,2.5,5.6.4,11.2-11.2,21.4-20,30.5-26.1,9.1-6.2,16.6-9.2,22.5-9.2,13.9,0,18.2,15,12.9,45l-11.2,61.6c1.2,1.4,2.3,2.8,3.4,4.2,14.5,19.2,21.9,44.3,21.9,74.8s0,3.7-.1,5.5c-.8,20.1-6.1,43.3-14.6,65.3-4.5,11.6-9.8,22.8-15.8,33.1h0c0,0,0,.1,0,.1,0,0,0,.1-.1.2,14.6-1.1,22.8-5.6,24.6-13.4l1.9-10.9c0,0,0-.2,0-.3l25.2-142,14.6-82.2c4.8-26.2,5.2-45.2,1.2-57ZM742,28.9c-6.4-6.4-15.8-9.6-28.1-9.6s-21,3.2-27.7,9.6c-6.7,6.4-10,15.3-10,26.5s3.3,21.7,10,28.1c6.7,6.4,15.9,9.6,27.7,9.6,25.2,0,37.8-12.6,37.8-37.8s-3.2-20.1-9.6-26.5ZM708.3,309.4l9.6-49.8c5.4-26.2,5.9-45.2,1.6-57-4.3-11.8-13.9-17.7-28.9-17.7s-28.4,5.1-43.4,15.3c-15,10.2-31.9,26-50.6,47.4-2.1,1.6-2,3.6.4,6,2.4,2.4,4.4,2.5,6,.4,10.7-11.2,20.6-20,29.7-26.1,9.1-6.2,16.6-9.2,22.5-9.2,15,0,19.6,15,13.7,45l-32.9,167.1c-5.5,26.3-6.4,45.6-2.9,57.8,16.4,1,25.3,3.6,37.1,8,1.4.5,2.9,1.1,4.5,1.6h.1s.1,0,.1,0c4.5,1.7,9,3.6,13.3,5.7.3-.1.6-.3.9-.4,4.2-5.7,8.1-11.4,11.6-17h0c3.2-5.1,5.9-10,8.1-14.9-4.4,2.1-8.3,3.1-11.7,3.1-5.9,0-10.2-3.3-12.8-10.1-2.7-6.7-2.4-18.1.8-34.1l6.6-34.4c-5.3-9.5-8-20.7-8-33.4,0-18.7,6.9-36.3,19-48.4,1.8-1.8,3.7-3.5,5.7-5ZM641.5,0C633.5,0,625.6.3,617.8.8c-7.8.5-17.6.8-29.3.8s-14.5-.3-22.5-.8C558,.3,552.1,0,548.3,0,537.6,0,528.5,6.7,521,20.1l-200.9,390.1L242.2,41.8c-3.8-17.1-7.4-28.4-10.8-33.7C227.9,2.7,223.2,0,217.3,0s-9.6.3-17.7.8c-8,.5-17.1.8-27.3.8s-16.2-.3-24.5-.8C139.5.3,132.2,0,125.7,0s-2.4,1.6-2.4,4.8.8,4.8,2.4,4.8c7.5,0,15.4,1.2,23.7,3.6,8.3,2.4,16.2,7.6,23.7,15.7,2,2.1,3.8,4.6,5.6,7.3,4.7,7.5,8.4,17.4,11.1,29.6,0,.3.1.6.2.8l90,429c1.1,2.1,3.1,3.4,6,3.6,2.9.3,4.9-.7,6-2.8L520.8,55.1l-57.6,382c-2.1,15.5-5.2,27.3-9.2,35.3-4,8-10.2,13.4-18.5,16.1-8.3,2.7-20.8,4-37.4,4s-2.4,1.6-2.4,4.8.8,4.8,2.4,4.8c11.8,0,24.6-.3,38.6-.8,13.9-.5,29.2-.8,45.8-.8s31.3.3,45.8.8c4.2.2,8.3.3,12.2.4,9.1-3.3,18.2-6.1,27.3-8.2-.4-.7-1-1-1.7-1-23,0-37.4-3.5-43-10.4-5.6-7-6.8-22-3.6-45l55.4-373.6c3.2-22.5,10.3-37.1,21.3-43.8,11-6.7,26.1-10,45.4-10s1.6-1.6,1.6-4.8S642.6,0,641.5,0ZM189.8,65.8l8.2-45.8-16.1-1.6-3.3,17.8-69,374.3c-5.4,27.9-13.9,48.5-25.7,61.9-11.8,13.4-27,20.1-45.8,20.1s-2.4,1.6-2.4,4.8.8,4.8,2.4,4.8c10.2,0,20.6-.3,31.3-.8,10.7-.5,21.7-.8,32.9-.8s25.3.3,35.8.8c10.5.5,20.2.8,29.3.8s2.4-1.6,2.4-4.8-.8-4.8-2.4-4.8c-18.8,0-31.2-6.8-37.4-20.5-6.2-13.7-6.8-34.7-2-63.1l61.7-343.1Z"/>
  <g>
    <path class="st0" d="M482.4,1412.5c0,3.3-.8,4.9-2.5,4.9-10.4,0-22.9-.3-37.7-.8-14.7-.5-30.3-.8-46.7-.8s-32.1.3-47.1.8c-15,.5-28.3.8-39.7.8s-1.6-1.6-1.6-4.9.5-4.9,1.6-4.9c16.4,0,28.8-1.4,37.3-4.1,8.5-2.7,14.7-8.2,18.8-16.4s7.5-20.2,10.2-36l33.5-190.8h-247.7l-33.9,190.8c-3.8,23.5-3,38.8,2.5,45.9,5.4,7.1,20.2,10.7,44.2,10.7s2.5,1.6,2.5,4.9-.8,4.9-2.5,4.9c-11.5,0-24.7-.3-39.7-.8-15-.5-31-.8-47.9-.8s-31,.3-45.5.8c-14.5.5-27.2.8-38.1.8S0,1415.8,0,1412.5s.8-4.9,2.5-4.9c16.4,0,28.8-1.4,37.3-4.1,8.4-2.7,14.9-8.2,19.2-16.4,4.4-8.2,7.9-20.2,10.7-36l67.2-379.2c4.4-23.5,3.6-38.8-2.4-45.9-6-7.1-20.8-10.7-44.2-10.7s-1.7-1.6-1.7-4.9.5-4.9,1.7-4.9c11.5,0,24.3.4,38.5,1.2,14.2.8,29.2,1.2,45,1.2s32.9-.4,47.9-1.2c15-.8,28.2-1.2,39.7-1.2s1.6,1.6,1.6,4.9-.5,4.9-1.6,4.9c-16.4,0-28.9,1.6-37.7,4.9-8.8,3.3-15,9-18.8,17.2-3.8,8.2-7.4,20.2-10.6,36l-29.9,167.9h247.7l29.5-167.9c.5-2.4.8-4.7,1.2-7,15.4,14.5,32.5,27.1,51.2,37.6l-61.4,346.9c-3.8,23.5-2.7,38.8,3.3,45.9,6,7.1,20.7,10.7,44.2,10.7s2.5,1.6,2.5,4.9Z"/>
    <path class="st0" d="M844.4,1355.1c-2.2-2.2-4.1-2.5-5.7-.8-10.4,10.4-20.1,18.8-29.1,25.4s-16.5,9.8-22.5,9.8c-12.6,0-16.1-15-10.7-45l47.5-258.8c.5-1.1-.7-2-3.7-2.9-3-.8-5.1-.4-6.1,1.2-4.4,10.4-11.2,19.5-20.5,27.4-.3.3-.7.6-1,.8-6.9-7.2-15-12.6-24.4-16-10.4-3.8-20.8-5.7-31.1-5.7-21.8,0-44.8,7.5-68.8,22.5-24,15-46.6,35.1-67.6,60.2-21,25.1-38.9,52.4-53.6,81.9-14.7,29.5-24.3,58.7-28.7,87.6-3.8,30.6-1,52.4,8.6,65.5,9.6,13.1,23.4,19.6,41.4,19.6s45.4-8.7,69.2-26.2c23.8-17.5,46.4-42.2,68-74.1,12.1-17.9,23.1-37.4,33-58.6l-12.9,75.4c-4.9,28.9-5.2,49.5-.8,61.8,4.4,12.3,13.9,18.4,28.7,18.4s28.7-5.6,43.4-16.8c14.7-11.2,30.8-26.9,48.3-47.1,1.6-1.6,1.4-3.5-.8-5.7ZM751,1197.1c-3.8,19.7-10.8,40.4-20.9,62.2-10.1,21.9-22.1,42.1-36,60.6-13.9,18.6-28.5,33.5-43.8,44.6-15.3,11.2-30.3,16.8-45,16.8s-24-6.7-29.5-20.1c-5.5-13.4-6-34.8-1.6-64.3,4.9-33.3,14.4-62.9,28.7-88.9,14.2-25.9,30.3-46.5,48.3-61.8,18-15.3,36-22.9,54-22.9,19.1-.5,32.6,6.1,40.5,20.1,7.9,13.9,9.7,31.8,5.3,53.6Z"/>
    <path class="st0" d="M1452.5,1095.1c-2.5-2.5-4.5-3.1-6.1-2-8.2,9.3-15.6,15.6-22.1,18.8-6.6,3.3-14.2,4.9-22.9,4.9-21.3-1.1-44.5-4.8-69.6-11.1-25.1-6.3-47.2-10-66.3-11.1-12-.5-21.4.7-28.3,3.7-6.8,3-13.2,10.4-19.2,22.1-6,11.7-13.4,30.4-22.1,56.1-1.1,2.7,0,4.8,3.3,6.1,3.3,1.4,5.2,1,5.7-1.2,5.4-12.6,10.9-21.8,16.4-27.8,5.5-6,13.1-9,22.9-9s21,1.6,35.2,4.9c14.2,3.3,28.9,6.6,44.2,9.8,15.3,3.3,28.7,4.9,40.1,4.9s11.6-.7,16.3-2l-224.3,252.6c-.5.5.4,2.2,2.9,4.9,2.5,2.7,4.2,3.8,5.3,3.3,8.2-9.3,15.6-15.6,22.1-18.8,6.6-3.3,14.2-4.9,22.9-4.9,16.4.6,33.9,2.6,52.4,6.1,18.6,3.6,37,7,55.3,10.2,18.3,3.3,35.1,5.2,50.4,5.7,10.9,0,19.7-1.5,26.2-4.5,6.6-3,12.7-10.5,18.4-22.5,5.7-12,12.4-30.8,20.1-56.5.5-2.2-.5-3.5-3.3-4.1-2.7-.5-4.6-.3-5.7.8-4.4,13.1-9.3,22.4-14.7,27.8-5.5,5.5-12.8,8.2-22.1,8.2s-23.1-1.6-39.7-4.9c-16.7-3.3-33.9-6.4-51.6-9.4-17.7-3-33.5-4.5-47.1-4.5s-11.5.7-16.4,1.9l223.6-253.4c1.1-1.1.4-2.9-2-5.3Z"/>
    <path class="st0" d="M1185.1,1361.7c1.6-1.6,1.4-3.7-.8-6.1-2.2-2.5-4.4-2.6-6.6-.4-10.4,10.4-20.1,18.7-29.1,25-9,6.3-16.5,9.4-22.5,9.4s-10.1-3.4-12.3-10.2c-2.2-6.8-1.9-18.4.8-34.8l30.3-170.4c3.3-22.4,6-38.6,8.2-48.7,2.2-10.1,2.9-16.6,2-19.7-.8-3-4.2-4.5-10.2-4.5-10.9,0-24.8.5-41.8,1.6-16.9,1.1-39,2.2-66.3,3.3-21.1.9-47.1,1.4-77.7,1.6l7.3-49.9c10.9-73.7,26.5-129,46.7-165.8,20.2-36.9,43.4-55.3,69.6-55.3s19.8,3.4,25,10.2c5.2,6.8,9.3,14.6,12.3,23.3,3,8.7,7,16.5,11.9,23.3,4.9,6.8,12.8,10.2,23.8,10.2s14.2-2.3,19.7-7c5.5-4.6,9-11.3,10.6-20.1,2.2-14.7-3.8-27.4-18-38.1-14.2-10.6-34.9-16-62.2-16s-43.4,4.2-63.1,12.7c-19.7,8.5-37.7,22.3-54.1,41.4-16.4,19.1-31,44.9-43.8,77.4-12.8,32.5-23.6,72.8-32.4,120.8-2.2,13.7-7.4,23.1-15.6,28.3-8.2,5.2-21.8,7.8-40.9,7.8s-2.7,1.9-3.3,5.7c-.5,3.8.3,5.7,2.5,5.7,14.7,0,25.7.8,32.8,2.5,7.1,1.6,11.3,5.6,12.7,11.9,1.4,6.3.9,16.2-1.2,29.9l-41.8,289.1c-7.1,48.6-13.1,85.2-18,109.7-4.9,24.6-9.6,40.9-13.9,49.1-4.4,8.2-9.5,12.3-15.6,12.3s-11.1-2.6-13.5-7.8c-2.5-5.2-4.4-11.1-5.7-17.6-1.4-6.6-4.1-12.4-8.2-17.6-4.1-5.2-11.1-7.8-20.9-7.8s-16.1,2.5-22.1,7.4c-6,4.9-9.5,11.5-10.6,19.7-1.6,10.4,2.5,19.5,12.3,27.4,9.8,7.9,25.4,11.9,46.7,11.9s42.2-6.4,57.7-19.2c15.6-12.8,28.5-34.5,38.9-65.1,10.4-30.6,19.4-71.8,27-123.7l45.3-311.1c26.7.2,48.7.5,66.1,1.2,22.9.8,40,2.9,51.2,6.1,11.2,3.3,18,8.7,20.5,16.4,2.5,7.7,2.3,18.3-.4,31.9l-30.3,165.4c-4.9,28.4-5.5,48.9-1.6,61.4,3.8,12.6,13.4,18.8,28.7,18.8s29.6-5.3,44.6-16c15-10.6,31.5-26.3,49.6-47.1Z"/>
  </g>
  <path class="st1" d="M624.5,996.8c-38.7,0-73.2-7.8-103.7-23.5-30.5-15.7-55.9-37.2-76.1-64.4-20.4-27.2-34.3-57.8-41.7-91.9-7.6-34-7.7-69.2-.5-105.2,7.8-36,23.1-67.8,45.7-95.4,22.6-27.6,48.8-49.2,78.7-64.9,29.8-15.7,59.2-23.5,88-23.5s31.8,2.7,46.2,7.8c14.4,5.2,27.2,14.4,38.3,27.6l-46.2,42.2c-11.1-21-25-34.9-41.7-41.7-16.7-6.8-32-10.4-45.7-10.4s-34.5,5.7-50.6,17.2c-16.1,11.5-29.9,26.7-41.2,45.7-11.5,19-20.1,40.3-26.1,63.9-7.8,40.6-7.2,78.2,2,112.6,9.1,34.4,24,64.4,44.8,89.9,20.6,25.6,45,45.4,73.2,59.4,28.2,14.2,57.7,21.1,88.4,21.1s80.3-10.5,113.1-31.5c32.8-21,59.2-52.2,79.2-93.8,20-41.6,31.2-93.8,33.9-156.8l15.7,5.9c-5.2,69.4-20.1,127.1-44.8,173-24.5,45.9-56.5,80.1-95.9,102.7-39.3,22.6-83.6,33.9-132.7,33.9h-.1ZM436.6,792.4l-8.9-8.8c23.5-19.6,49.8-40.6,78.7-62.9,28.8-22.3,57.9-45.3,87.5-68.8,29.5-23.5,56.5-47.5,81.1-71.7,24.5-24.3,44.4-48.3,59.4-72.2,15.1-23.9,22.6-47.3,22.6-70.3s-1.6-22.1-4.9-29c-3.3-6.8-7.2-12.4-11.8-16.7-4.6-4.3-8.5-8.3-11.8-12.3-3.3-3.9-4.9-9.5-4.9-16.7s2.4-15.2,7.3-20.1c4.9-4.9,11.3-7.3,19.2-7.3,13.1,0,24.3,6.1,33.4,18.2s13.8,29,13.8,50.6-8.4,55.4-25,83.6c-16.7,28.2-38.7,56-65.9,83.6-27.2,27.6-56.8,54.4-88.9,80.6-32.1,26.2-64,51.1-95.9,74.7-31.8,23.5-60.1,45.5-85,65.9h.1ZM711,755c-6.6,0-12.1-2.1-16.7-6.3s-6.8-12-6.8-23.1c0-17.1,5.1-32.8,15.2-47.2,10.1-14.4,23.4-26.1,39.8-34.9,16.3-8.8,33.4-13.3,51.1-13.3s34.8,3.8,53.1,11.3c18.3,7.6,36.7,16.2,55,26.1s36.2,18.5,53.6,26.1c17.3,7.6,33.3,11.3,47.7,11.3s16.2-1.8,21.1-5.4c4.9-3.5,7.3-7.7,7.3-12.3,0-6.6-1.5-12.3-4.4-17.2-2.9-4.9-6.1-10-9.4-15.2-3.3-5.2-4.9-11.1-4.9-17.7s2-12.4,5.9-15.7c3.9-3.3,9.5-4.9,16.7-4.9s12,1.8,16.2,5.4c4.3,3.7,6.3,11.3,6.3,23.1s-4.1,30.9-12.3,45.3c-8.2,14.4-19.2,26.2-32.9,35.4-13.8,9.1-29.2,13.8-46.2,13.8s-33.8-3.9-52.1-11.8c-18.3-7.8-37.2-17.1-56.5-27.6-19.4-10.5-38.2-19.6-56.5-27.6-18.3-7.8-35.7-11.8-52.1-11.8s-17.3,2.2-22.6,6.3c-5.2,4.3-7.8,9-7.8,14.3s1.1,12.6,3.4,18.2c2.3,5.6,4.5,11.1,6.8,16.7,2.3,5.6,3.4,11.3,3.4,17.2s-1.5,9.4-4.4,14.3c-2.9,4.9-8.7,7.3-17.2,7.3h.1Z"/>
</svg>