<?xml version="1.0" encoding="UTF-8"?>
<svg id="Layer_2" data-name="Layer 2" xmlns="http://www.w3.org/2000/svg" viewBox="0 0 627.58 156.54">
  <defs>
    <style>
      .cls-1 {
        fill: #c7a32b;
      }

      .cls-2 {
        fill: #701c0a;
      }
    </style>
  </defs>
  <g id="Pattern">
    <g>
      <path class="cls-1" d="M0,0c0,28.47,19.29,51.61,43.09,51.61h71.89c2.66,23.71,19.56,41.99,40.04,41.99h49.18c32,39.92,69.49,62.94,109.57,62.94s77.58-23.02,109.58-62.94h49.2c20.49,0,37.35-18.28,40.03-41.99h71.89c23.8,0,43.1-23.14,43.1-51.61"/>
      <path class="cls-2" d="M605.37,0c0,13.71-9.37,24.86-20.89,24.86h-91.27l-2.61,23.13c-1.22,10.75-8.98,18.85-18.04,18.85h-58.63l-6.55,8.17c-28.7,35.82-61.06,54.76-93.6,54.76s-64.88-18.94-93.6-54.77l-6.55-8.17h-58.6c-9.08,0-16.84-8.09-18.05-18.82l-2.6-23.17H43.09C31.57,24.86,22.2,13.71,22.2,0M23.2,0c0,13.16,8.92,23.86,19.89,23.86h92.19l2.7,24.05c1.15,10.22,8.48,17.93,17.05,17.93h59.08l6.85,8.54c28.53,35.58,60.63,54.39,92.82,54.39s64.32-18.81,92.82-54.38l6.85-8.55h59.11c8.56,0,15.89-7.72,17.05-17.97l2.71-24.02h92.16c10.97,0,19.89-10.7,19.89-23.86"/>
    </g>
  </g>
</svg>